<svg width="25" height="25" viewBox="0 0 25 25" fill="none" xmlns="http://www.w3.org/2000/svg">
<g id="Frame">
<path id="Vector" d="M20.5371 22.0322H4.53711C3.98483 22.0322 3.53711 21.5845 3.53711 21.0322V3.03223C3.53711 2.47995 3.98483 2.03223 4.53711 2.03223H20.5371C21.0894 2.03223 21.5371 2.47995 21.5371 3.03223V21.0322C21.5371 21.5845 21.0894 22.0322 20.5371 22.0322ZM19.5371 20.0322V4.03223H5.53711V20.0322H19.5371ZM9.53711 6.03223V8.03223C9.53711 9.68908 10.8802 11.0322 12.5371 11.0322C14.1939 11.0322 15.5371 9.68908 15.5371 8.03223V6.03223H17.5371V8.03223C17.5371 10.7936 15.2985 13.0322 12.5371 13.0322C9.77569 13.0322 7.53711 10.7936 7.53711 8.03223V6.03223H9.53711Z" fill="white"/>
</g>
</svg>
