<svg width="16" height="16" viewBox="0 0 16 16" fill="none" xmlns="http://www.w3.org/2000/svg">
<g id="icons/ic_plus">
<path id="shape" d="M12.667 7.33317H8.66699V3.33317C8.66699 2.96498 8.36852 2.6665 8.00033 2.6665C7.63214 2.6665 7.33366 2.96498 7.33366 3.33317V7.33317H3.33366C2.96547 7.33317 2.66699 7.63165 2.66699 7.99984C2.66699 8.36803 2.96547 8.6665 3.33366 8.6665H7.33366V12.6665C7.33366 13.0347 7.63214 13.3332 8.00033 13.3332C8.36852 13.3332 8.66699 13.0347 8.66699 12.6665V8.6665H12.667C13.0352 8.6665 13.3337 8.36803 13.3337 7.99984C13.3337 7.63165 13.0352 7.33317 12.667 7.33317Z" fill="#222222"/>
</g>
</svg>
