<svg width="18" height="19" viewBox="0 0 18 19" fill="none" xmlns="http://www.w3.org/2000/svg">
<path d="M11.25 9.41113C11.25 9.85614 11.118 10.2912 10.8708 10.6612C10.6236 11.0312 10.2722 11.3196 9.86104 11.4899C9.4499 11.6602 8.9975 11.7047 8.56105 11.6179C8.12459 11.5311 7.72368 11.3168 7.40901 11.0021C7.09434 10.6875 6.88005 10.2865 6.79323 9.85009C6.70642 9.41363 6.75097 8.96123 6.92127 8.5501C7.09157 8.13896 7.37996 7.78756 7.74997 7.54033C8.11998 7.29309 8.55499 7.16113 9 7.16113C9.59617 7.16299 10.1674 7.40064 10.5889 7.82219C11.0105 8.24375 11.2481 8.81497 11.25 9.41113ZM16.0312 6.31738V12.5049C16.0312 13.5492 15.6164 14.5507 14.878 15.2891C14.1396 16.0275 13.138 16.4424 12.0938 16.4424H5.90625C4.86196 16.4424 3.86044 16.0275 3.12202 15.2891C2.38359 14.5507 1.96875 13.5492 1.96875 12.5049V6.31738C1.96875 5.27309 2.38359 4.27157 3.12202 3.53315C3.86044 2.79473 4.86196 2.37988 5.90625 2.37988H12.0938C13.138 2.37988 14.1396 2.79473 14.878 3.53315C15.6164 4.27157 16.0312 5.27309 16.0312 6.31738ZM12.375 9.41113C12.375 8.74362 12.1771 8.0911 11.8062 7.53608C11.4354 6.98107 10.9083 6.54849 10.2916 6.29304C9.67486 6.03759 8.99626 5.97076 8.34157 6.10098C7.68688 6.23121 7.08552 6.55265 6.61351 7.02465C6.14151 7.49665 5.82008 8.09802 5.68985 8.7527C5.55962 9.40739 5.62646 10.086 5.88191 10.7027C6.13735 11.3194 6.56993 11.8465 7.12495 12.2173C7.67997 12.5882 8.33249 12.7861 9 12.7861C9.89511 12.7861 10.7536 12.4306 11.3865 11.7976C12.0194 11.1647 12.375 10.3062 12.375 9.41113ZM13.5 5.75488C13.5 5.588 13.4505 5.42487 13.3578 5.28612C13.2651 5.14737 13.1333 5.03922 12.9791 4.97536C12.825 4.9115 12.6553 4.89479 12.4916 4.92735C12.328 4.9599 12.1776 5.04026 12.0596 5.15826C11.9416 5.27626 11.8613 5.4266 11.8287 5.59028C11.7962 5.75395 11.8129 5.9236 11.8767 6.07777C11.9406 6.23195 12.0487 6.36372 12.1875 6.45644C12.3262 6.54915 12.4894 6.59863 12.6562 6.59863C12.88 6.59863 13.0946 6.50974 13.2529 6.3515C13.4111 6.19327 13.5 5.97866 13.5 5.75488Z" fill="black"/>
</svg>
