<svg width="16" height="16" viewBox="0 0 16 16" fill="none" xmlns="http://www.w3.org/2000/svg">
<path d="M14.3923 0.911133H1.60835C0.996172 0.911133 0.5 1.39213 0.5 1.9858V14.836C0.5 15.4296 0.996339 15.9111 1.60835 15.9111H14.3923C15.0045 15.9111 15.5 15.4295 15.5 14.836V1.9858C15.5 1.3923 15.0045 0.911133 14.3923 0.911133ZM5.04755 13.4671H2.78119V6.6948H5.04755V13.4671ZM3.91454 5.76963H3.89937C3.13936 5.76963 2.64669 5.2498 2.64669 4.59913C2.64669 3.9353 3.15386 3.42963 3.92887 3.42963C4.70405 3.42963 5.18089 3.93513 5.19589 4.59913C5.19589 5.24997 4.70421 5.76963 3.91454 5.76963ZM13.2173 13.4671H10.9516V9.8438C10.9516 8.93313 10.6233 8.31197 9.80394 8.31197C9.1771 8.31197 8.80509 8.73113 8.64176 9.13563C8.58109 9.2803 8.56626 9.4823 8.56626 9.6843V13.467H6.3009C6.3009 13.467 6.33056 7.3298 6.3009 6.69463H8.56642V7.6548C8.86726 7.19347 9.4046 6.5353 10.6079 6.5353C12.0991 6.5353 13.2173 7.50263 13.2173 9.5838V13.4671ZM8.55176 7.6763C8.55576 7.66997 8.56109 7.66213 8.56642 7.6548V7.6763H8.55176Z" fill="black"/>
</svg>
