<svg width="33" height="32" viewBox="0 0 33 32" fill="none" xmlns="http://www.w3.org/2000/svg">
<path d="M24.8183 23.1518L16.333 31.637L7.84773 23.1518C3.16143 18.4654 3.16143 10.8675 7.84773 6.18122C12.534 1.49493 20.1319 1.49493 24.8183 6.18122C29.5046 10.8675 29.5046 18.4654 24.8183 23.1518ZM16.333 19.9998C19.2785 19.9998 21.6663 17.612 21.6663 14.6665C21.6663 11.721 19.2785 9.33317 16.333 9.33317C13.3875 9.33317 10.9997 11.721 10.9997 14.6665C10.9997 17.612 13.3875 19.9998 16.333 19.9998ZM16.333 17.3332C14.8602 17.3332 13.6663 16.1393 13.6663 14.6665C13.6663 13.1937 14.8602 11.9998 16.333 11.9998C17.8058 11.9998 18.9997 13.1937 18.9997 14.6665C18.9997 16.1393 17.8058 17.3332 16.333 17.3332Z" fill="white"/>
</svg>
