<svg xmlns="http://www.w3.org/2000/svg" width="54" height="55" viewBox="0 0 54 55" fill="none">
  <g clip-path="url(#clip0_398_110669)">
    <path d="M22.8867 0.686523V7.01465L1.03359 47.4197C0.696094 48.0314 0.527344 48.7275 0.527344 49.4236C0.527344 51.7439 2.41523 53.6318 4.73555 53.6318C5.43164 53.6318 6.12773 53.4525 6.73945 53.1256L47.1445 31.2725H53.4727C53.4727 14.3764 39.7828 0.686523 22.8867 0.686523Z" fill="url(#paint0_linear_398_110669)"/>
    <path d="M24.4266 10.3368C24.9855 10.7693 25.7027 10.938 26.3988 10.822L28.1707 10.5161C29.1305 10.3474 30.1113 10.7482 30.6809 11.5497L31.725 13.0157C32.1363 13.5853 32.7691 13.965 33.4652 14.0599L35.2793 14.3025C36.2391 14.429 37.0406 15.0829 37.357 16.0005L38.0426 17.9939C38.2535 18.6161 38.707 19.1329 39.2871 19.4282L41.1961 20.4091C42.0398 20.8415 42.5672 21.7064 42.5777 22.645L42.5988 24.7966C42.6094 25.4611 42.873 26.0939 43.3371 26.5579C44.5289 27.7708 44.2336 29.7853 42.7359 30.5974L33.5391 35.565C32.6742 36.029 32.1152 36.9044 32.0414 37.8853L31.2188 48.9806C31.1555 49.8771 30.4066 50.5732 29.4996 50.5732C28.6137 50.5732 27.8648 49.8982 27.791 49.0122L27.2848 43.5068C27.0949 41.4501 24.8695 40.2583 23.0555 41.2392C22.1695 41.7243 21.6105 42.6525 21.6105 43.665V46.6603C21.6105 47.5462 20.8934 48.2529 20.018 48.2529C19.5539 48.2529 19.1215 48.0525 18.8156 47.7044L17.8031 46.5443C16.9488 45.5634 15.5355 45.3208 14.3965 45.9431L4.53516 51.4064C2.74219 52.4083 0.527344 51.1005 0.527344 49.0439C0.527344 48.5904 0.643359 48.1474 0.854297 47.7572L20.6508 11.1595C21.3891 9.77786 23.182 9.39817 24.4266 10.3368Z" fill="url(#paint1_linear_398_110669)"/>
    <path d="M50.3086 34.4365C48.5578 34.4365 47.1445 33.0232 47.1445 31.2725C47.1445 17.8779 36.2812 7.01465 22.8867 7.01465C21.1359 7.01465 19.7227 5.60137 19.7227 3.85059C19.7227 2.0998 21.1359 0.686523 22.8867 0.686523C39.7828 0.686523 53.4727 14.3764 53.4727 31.2725C53.4727 33.0232 52.0594 34.4365 50.3086 34.4365Z" fill="url(#paint2_linear_398_110669)"/>
    <path d="M16.7485 18.3631C17.5185 19.5338 18.8474 20.3037 20.3556 20.3037C22.7392 20.3037 24.6798 18.3631 24.6798 15.9795C24.6798 13.5959 22.7603 11.6658 20.3767 11.6553L16.7485 18.3631Z" fill="url(#paint3_linear_398_110669)"/>
    <path d="M33.1172 32.4326C35.5054 32.4326 37.4414 30.4966 37.4414 28.1084C37.4414 25.7202 35.5054 23.7842 33.1172 23.7842C30.729 23.7842 28.793 25.7202 28.793 28.1084C28.793 30.4966 30.729 32.4326 33.1172 32.4326Z" fill="url(#paint4_linear_398_110669)"/>
    <path d="M19.1953 35.0693C21.5835 35.0693 23.5195 33.1333 23.5195 30.7451C23.5195 28.3569 21.5835 26.4209 19.1953 26.4209C16.8071 26.4209 14.8711 28.3569 14.8711 30.7451C14.8711 33.1333 16.8071 35.0693 19.1953 35.0693Z" fill="url(#paint5_linear_398_110669)"/>
    <path d="M10.4414 44.5405C10.2938 44.5405 10.1461 44.5299 9.98792 44.4983C9.27073 44.3823 8.56409 44.0026 7.98401 43.4225C7.40393 42.8424 7.02424 42.1358 6.90823 41.4186C6.78167 40.6381 6.98206 39.9526 7.45667 39.4674C7.93128 38.9823 8.62737 38.7924 9.40784 38.919C10.125 39.035 10.8317 39.4147 11.4117 39.9948C11.9918 40.5748 12.3715 41.2815 12.4875 41.9987C12.6141 42.7791 12.4137 43.4647 11.9391 43.9498C11.5594 44.3401 11.0321 44.5405 10.4414 44.5405ZM8.97542 39.942C8.73284 39.942 8.43753 39.9947 8.21604 40.2162C7.89964 40.5326 7.92073 41.0073 7.96292 41.2498C8.04729 41.735 8.32151 42.2623 8.74339 42.6737C9.16526 43.085 9.67151 43.3698 10.1672 43.4541C10.4203 43.4963 10.8844 43.5174 11.2008 43.201C11.5172 42.8846 11.4961 42.41 11.4539 42.1674C11.3696 41.6822 11.0953 41.1549 10.6735 40.7436C10.2516 40.3322 9.74534 40.0475 9.24963 39.9631C9.17581 39.9526 9.08089 39.942 8.97542 39.942ZM31.6406 21.7592C31.05 21.7592 30.5227 21.5588 30.143 21.1686C29.6578 20.6834 29.468 19.9979 29.5946 19.2174C29.7106 18.5002 30.0903 17.7936 30.6703 17.2135C31.2504 16.6334 31.9571 16.2537 32.6742 16.1377C33.4547 16.0112 34.1403 16.2115 34.6254 16.6862C35.1106 17.1713 35.3004 17.8569 35.1739 18.6373C35.0578 19.3545 34.6781 20.0612 34.0981 20.6412C33.518 21.2213 32.8114 21.601 32.0942 21.717C31.936 21.7487 31.7883 21.7592 31.6406 21.7592ZM33.1067 17.1608C33.0012 17.1608 32.9063 17.1713 32.8324 17.1819C32.3473 17.2662 31.8199 17.5405 31.4086 17.9623C30.9973 18.3842 30.7125 18.8905 30.6281 19.3862C30.586 19.6393 30.5649 20.1033 30.8813 20.4198C31.1977 20.7362 31.6723 20.7151 31.9149 20.6729C32.4 20.5885 32.9274 20.3143 33.3387 19.8924C33.75 19.4705 34.0348 18.9643 34.1192 18.4686C34.1614 18.2155 34.1824 17.7514 33.866 17.435C33.6446 17.224 33.3492 17.1608 33.1067 17.1608ZM14.2699 39.5623L14.0907 38.5287L14.291 38.4971C15.2719 38.3283 16.1789 37.8326 16.8539 37.0944L17.6344 37.8115C16.8012 38.708 15.6832 39.3197 14.4809 39.5307L14.2699 39.5623ZM26.2828 25.2819C25.3864 24.4487 24.7746 23.3307 24.5637 22.1283L24.5321 21.928L25.5656 21.7487L25.5973 21.949C25.766 22.9299 26.2617 23.8369 27 24.5119L26.2828 25.2819Z" fill="#B23998"/>
    <path d="M50.3086 34.4365C52.0561 34.4365 53.4727 33.0199 53.4727 31.2725C53.4727 29.525 52.0561 28.1084 50.3086 28.1084C48.5611 28.1084 47.1445 29.525 47.1445 31.2725C47.1445 33.0199 48.5611 34.4365 50.3086 34.4365Z" fill="#FFDCA3"/>
  </g>
  <defs>
    <linearGradient id="paint0_linear_398_110669" x1="27" y1="8.80762" x2="27" y2="52.3344" gradientUnits="userSpaceOnUse">
      <stop offset="0.502" stop-color="#D84861"/>
      <stop offset="1" stop-color="#C12944"/>
    </linearGradient>
    <linearGradient id="paint1_linear_398_110669" x1="0.527344" y1="9.82031" x2="44.0729" y2="9.82031" gradientUnits="userSpaceOnUse">
      <stop offset="0.505" stop-color="#FFC970"/>
      <stop offset="1" stop-color="#FFB233"/>
    </linearGradient>
    <linearGradient id="paint2_linear_398_110669" x1="19.7227" y1="0.686523" x2="53.4727" y2="0.686523" gradientUnits="userSpaceOnUse">
      <stop offset="0.505" stop-color="#FFC970"/>
      <stop offset="1" stop-color="#FFB233"/>
    </linearGradient>
    <linearGradient id="paint3_linear_398_110669" x1="16.7485" y1="11.6553" x2="24.6798" y2="11.6553" gradientUnits="userSpaceOnUse">
      <stop stop-color="#D84861"/>
      <stop offset="1" stop-color="#C12944"/>
    </linearGradient>
    <linearGradient id="paint4_linear_398_110669" x1="28.793" y1="28.1084" x2="37.4414" y2="28.1084" gradientUnits="userSpaceOnUse">
      <stop offset="0.26" stop-color="#D84861"/>
      <stop offset="1" stop-color="#C12944"/>
    </linearGradient>
    <linearGradient id="paint5_linear_398_110669" x1="14.8711" y1="30.7451" x2="23.5195" y2="30.7451" gradientUnits="userSpaceOnUse">
      <stop stop-color="#D84861"/>
      <stop offset="1" stop-color="#C12944"/>
    </linearGradient>
    <clipPath id="clip0_398_110669">
      <rect width="54" height="54" fill="white" transform="translate(0 0.15918)"/>
    </clipPath>
  </defs>
</svg>