<svg width="24" height="24" viewBox="0 0 24 24" fill="none" xmlns="http://www.w3.org/2000/svg">
<g id="Group">
<path id="Vector" d="M23.1941 11.6C22.6628 10.8905 21.9078 10.3807 21.0511 10.153C21.4687 8.93921 21.7772 7.69061 21.9731 6.42202C22.0371 5.96089 21.9932 5.49119 21.8448 5.04991C21.6965 4.60862 21.4477 4.2078 21.1181 3.87899C20.7886 3.55018 20.3871 3.30236 19.9455 3.15505C19.5039 3.00773 19.0341 2.96493 18.5731 3.03002C18.4471 3.04702 18.0731 3.10202 17.5621 3.20102C17.8785 2.50048 18.0284 1.73618 18.0001 0.968019C17.9959 0.836697 17.9659 0.707488 17.9117 0.587771C17.8576 0.468053 17.7804 0.360171 17.6846 0.270284C17.5888 0.180397 17.4762 0.110265 17.3532 0.063893C17.2303 0.0175208 17.0994 -0.00418387 16.9681 1.84318e-05C16.8368 0.00422073 16.7076 0.0342476 16.5879 0.0883848C16.4681 0.142522 16.3603 0.219709 16.2704 0.315539C16.1805 0.411369 16.1103 0.523965 16.064 0.646899C16.0176 0.769833 15.9959 0.900697 16.0001 1.03202C16.0172 1.51509 15.918 1.99519 15.7111 2.43202C15.5665 2.04167 15.3602 1.67705 15.1001 1.35202C14.658 0.848915 14.0969 0.464669 13.468 0.234422C12.8391 0.00417394 12.1625 -0.0647276 11.5001 0.0340185C10.7738 0.0923195 10.0795 0.358215 9.5001 0.800019C8.84504 0.307212 8.05256 0.0310486 7.2331 0.0100185C6.19329 -0.0907611 5.15591 0.224588 4.3481 0.887019C3.93793 1.25219 3.60676 1.69738 3.37495 2.19522C3.14313 2.69307 3.01557 3.23306 3.0001 3.78202C2.97266 4.66104 3.22859 5.52559 3.7301 6.24802C3.12 6.77112 2.64641 7.43487 2.35022 8.18195C2.05404 8.92903 1.94417 9.73698 2.0301 10.536C1.23925 10.9767 0.622943 11.6747 0.283508 12.514C-0.0559265 13.3533 -0.0980618 14.2835 0.164099 15.15C0.849108 17.5335 2.12408 19.7058 3.8711 21.466C5.54711 23.1003 7.79824 24.0103 10.1391 24H13.8611C16.2017 24.0105 18.4526 23.1004 20.1281 21.466C21.8758 19.7062 23.1511 17.5338 23.8361 15.15C24.0146 14.5494 24.0496 13.9152 23.938 13.2985C23.8265 12.6819 23.5717 12.1001 23.1941 11.6ZM18.8511 5.01002C19.0059 4.98914 19.1633 5.00432 19.3113 5.05437C19.4592 5.10443 19.5935 5.188 19.7038 5.29857C19.8141 5.40913 19.8973 5.54369 19.947 5.69174C19.9966 5.83979 20.0114 5.99732 19.9901 6.15202C19.7804 7.46521 19.4404 8.75424 18.9751 10H16.4141L17.7071 8.70702C17.8893 8.51842 17.9901 8.26581 17.9878 8.00362C17.9855 7.74142 17.8803 7.49061 17.6949 7.3052C17.5095 7.11979 17.2587 7.01462 16.9965 7.01235C16.7343 7.01007 16.4817 7.11086 16.2931 7.29302L13.5861 10H12.0371C11.9641 9.47407 12.0142 8.93834 12.1836 8.43508C12.353 7.93182 12.6369 7.47479 13.0131 7.10002C13.4401 6.66902 15.0771 5.50002 18.8511 5.01002ZM5.0001 3.84902C5.00611 3.57372 5.06818 3.30253 5.18252 3.05202C5.29685 2.80151 5.46106 2.57694 5.6651 2.39202C6.07767 2.08706 6.59021 1.9492 7.1001 2.00602C7.34638 1.99589 7.59202 2.03797 7.82089 2.12948C8.04977 2.221 8.2567 2.35988 8.4281 2.53702C8.56303 2.68778 8.72826 2.80838 8.91298 2.89092C9.09771 2.97346 9.29777 3.01609 9.5001 3.01602C9.70196 3.01502 9.90135 2.9716 10.0853 2.88856C10.2693 2.80552 10.4338 2.68473 10.5681 2.53402C10.7172 2.37625 10.8962 2.24967 11.0947 2.1616C11.2931 2.07354 11.5071 2.02576 11.7241 2.02102C12.0547 1.96214 12.3946 1.98613 12.7137 2.09083C13.0327 2.19554 13.3207 2.3777 13.5521 2.62102C13.8557 3.00966 14.0141 3.49206 14.0001 3.98502V4.19202C12.6726 4.67004 11.5386 5.57043 10.7721 6.75502C10.1406 6.00749 9.30048 5.46542 8.35914 5.1982C7.4178 4.93098 6.41813 4.95076 5.4881 5.25502C5.15624 4.86335 4.98226 4.36206 5.0001 3.84902ZM4.0001 10C4.0001 9.20437 4.31617 8.44131 4.87878 7.8787C5.44139 7.31609 6.20445 7.00002 7.0001 7.00002C7.79575 7.00002 8.55881 7.31609 9.12142 7.8787C9.68403 8.44131 10.0001 9.20437 10.0001 10H4.0001ZM21.9161 14.589C21.3186 16.6462 20.2189 18.5225 18.7161 20.049C17.4167 21.3115 15.6728 22.0123 13.8611 22H10.1391C8.32688 22.0119 6.58256 21.3112 5.2821 20.049C3.77919 18.5225 2.67952 16.6462 2.0821 14.589C1.99245 14.2863 1.97506 13.9667 2.03133 13.656C2.0876 13.3453 2.21596 13.0521 2.4061 12.8C2.59059 12.5512 2.83095 12.3491 3.10782 12.2102C3.38468 12.0712 3.69032 11.9992 4.0001 12H20.0001C20.3109 11.9983 20.6177 12.0698 20.8957 12.2088C21.1737 12.3478 21.415 12.5503 21.6001 12.8C21.7889 13.0528 21.9158 13.3463 21.9707 13.657C22.0256 13.9677 22.0069 14.2869 21.9161 14.589Z" fill="#222222"/>
</g>
</svg>
