<svg width="24" height="24" viewBox="0 0 24 24" fill="none" xmlns="http://www.w3.org/2000/svg">
<g id="Group">
<path id="Vector" d="M23.1998 0.800232C22.829 0.426245 22.3574 0.168144 21.8426 0.0573547C21.3277 -0.0534347 20.7917 -0.0121326 20.2998 0.176232L3.15484 6.92923C2.03447 7.37231 1.1129 8.20682 0.561184 9.27788C0.00947124 10.3489 -0.134909 11.5838 0.154841 12.7532C0.881874 15.407 2.28703 17.8259 4.23217 19.7721C6.1773 21.7183 8.59544 23.1248 11.2488 23.8532C12.4195 24.1412 13.6548 23.9949 14.7259 23.4416C15.797 22.8884 16.6312 21.9656 17.0738 20.8442L23.8318 3.67223C24.0141 3.18347 24.0514 2.6525 23.9393 2.14305C23.8272 1.63361 23.5704 1.16735 23.1998 0.800232ZM11.7458 21.9112C9.43688 21.2775 7.33252 20.054 5.63956 18.3609C3.9466 16.6677 2.72328 14.5633 2.08984 12.2542C1.94376 11.6584 1.98712 11.0319 2.21385 10.462C2.44059 9.89197 2.83944 9.40688 3.35484 9.07423C3.45821 12.1099 4.71018 14.9932 6.85771 17.1413C9.00524 19.2894 11.8882 20.5421 14.9238 20.6462C14.5915 21.1615 14.1068 21.5602 13.5371 21.787C12.9675 22.0137 12.3413 22.0572 11.7458 21.9112ZM15.7728 18.6842C9.58184 18.5842 5.41784 14.4192 5.31684 8.22723L21.0098 2.04723C21.1409 1.997 21.2838 1.98633 21.4208 2.01655C21.5579 2.04677 21.6831 2.11655 21.7808 2.21723C21.8806 2.31051 21.9509 2.43094 21.983 2.56367C22.0152 2.6964 22.0078 2.83564 21.9618 2.96423L21.2998 4.64523C15.5418 2.66523 12.3578 10.8542 17.8868 13.3132L15.7728 18.6842ZM18.6198 11.4522C17.9926 11.1757 17.4967 10.6673 17.236 10.0334C16.9752 9.39947 16.9699 8.68926 17.221 8.05147C17.4721 7.41369 17.9602 6.89778 18.5831 6.6118C19.2061 6.32581 19.9155 6.29192 20.5628 6.51723L18.6198 11.4522Z" fill="#222222"/>
<path id="Vector_2" d="M11 9C10.4696 9 9.96086 9.21071 9.58579 9.58579C9.21071 9.96086 9 10.4696 9 11C9 11.5304 9.21071 12.0391 9.58579 12.4142C9.96086 12.7893 10.4696 13 11 13C11.5304 13 12.0391 12.7893 12.4142 12.4142C12.7893 12.0391 13 11.5304 13 11C13 10.4696 12.7893 9.96086 12.4142 9.58579C12.0391 9.21071 11.5304 9 11 9Z" fill="#222222"/>
</g>
</svg>
