<svg width="18" height="13" viewBox="0 0 18 13" fill="none" xmlns="http://www.w3.org/2000/svg">
<path d="M17.4803 4.64973C17.5162 3.5435 17.2734 2.446 16.774 1.45825C16.4404 1.04621 15.9702 0.767384 15.4487 0.672351C13.3065 0.486366 11.1562 0.410794 9.00624 0.445933C6.85654 0.410626 4.70645 0.486199 2.56454 0.672351C2.13952 0.751172 1.74696 0.950544 1.43168 1.24496C0.740058 1.88635 0.689829 2.98444 0.585507 3.9102C0.471498 5.57793 0.471498 7.25149 0.585507 8.91921C0.604826 9.4416 0.682874 9.96012 0.818879 10.4647C0.91161 10.8557 1.09862 11.2174 1.36522 11.518C1.6805 11.8286 2.08234 12.0373 2.5174 12.1169C4.18346 12.3232 5.86266 12.4082 7.54032 12.3703C10.2411 12.4136 12.6197 12.368 15.4217 12.1571C15.8699 12.0798 16.2833 11.8688 16.6071 11.5512C16.818 11.341 16.978 11.086 17.0738 10.8047C17.3536 9.95857 17.4911 9.07145 17.4803 8.18046C17.5066 7.72067 17.5066 5.10952 17.4803 4.64896V4.64973ZM11.8314 6.24161L11.8283 6.24007C11.187 6.59553 10.4467 6.97109 9.66617 7.36752C8.88105 7.76549 8.05729 8.18355 7.2544 8.61938V3.83602C8.01711 4.23631 8.77132 4.62964 9.53017 5.02606C10.2875 5.42326 11.0502 5.82509 11.8283 6.24007L11.8376 6.23466L11.8314 6.24161Z" fill="black"/>
</svg>
