<svg width="21" height="24" viewBox="0 0 21 24" fill="none" xmlns="http://www.w3.org/2000/svg">
<g id="Group">
<path id="Vector" d="M19.8408 5.125C19.5605 4.77324 19.2044 4.48935 18.7991 4.29454C18.3937 4.09973 17.9495 3.99905 17.4998 4H13.1728L13.2998 2.89C13.3268 2.646 13.4426 2.42045 13.6252 2.25632C13.8077 2.0922 14.0443 2.00097 14.2898 2H18.4998C18.765 2 19.0194 1.89464 19.2069 1.70711C19.3944 1.51957 19.4998 1.26522 19.4998 1C19.4998 0.734784 19.3944 0.48043 19.2069 0.292893C19.0194 0.105357 18.765 0 18.4998 0L14.2898 0C13.5516 0.000168296 12.8393 0.272519 12.2893 0.764943C11.7393 1.25737 11.3902 1.93529 11.3088 2.669L11.1608 4H3.49978C3.06017 4.00408 2.62675 4.10409 2.2298 4.29305C1.83284 4.482 1.48193 4.75535 1.20158 5.09399C0.921219 5.43262 0.718177 5.82839 0.606634 6.25363C0.495091 6.67888 0.477736 7.12335 0.555782 7.556L2.06778 19.622C2.22099 20.8302 2.80919 21.9411 3.72232 22.747C4.63545 23.5528 5.81093 23.9982 7.02878 24H13.9698C15.1878 23.998 16.3635 23.5524 17.2767 22.7464C18.19 21.9404 18.7784 20.8294 18.9318 19.621L20.4318 7.653C20.5302 7.21433 20.5282 6.75908 20.4258 6.32131C20.3235 5.88354 20.1235 5.47457 19.8408 5.125ZM17.4998 6C17.6497 5.99994 17.7978 6.03362 17.933 6.09853C18.0682 6.16344 18.1871 6.25793 18.2808 6.375C18.3812 6.50662 18.4496 6.65979 18.4807 6.8224C18.5118 6.98502 18.5046 7.15263 18.4598 7.312L18.1218 10H12.5058L12.9508 6H17.4998ZM2.72078 6.374C2.8144 6.25738 2.93298 6.16324 3.0678 6.09851C3.20262 6.03379 3.35023 6.00012 3.49978 6H10.9368L10.4918 10H2.87378L2.52378 7.216C2.491 7.06988 2.4917 6.91824 2.52581 6.77243C2.55993 6.62662 2.62658 6.49041 2.72078 6.374ZM16.9468 19.374C16.8546 20.0988 16.5016 20.7652 15.9536 21.2486C15.4057 21.7319 14.7004 21.999 13.9698 22H7.02878C6.29801 21.9999 5.59241 21.733 5.04446 21.2495C4.49651 20.766 4.14389 20.0991 4.05278 19.374L3.12578 12H17.8708L16.9468 19.374ZM11.9378 15.11L11.4938 19.11C11.4793 19.2405 11.4393 19.3669 11.376 19.482C11.3127 19.5971 11.2274 19.6986 11.1249 19.7806C11.0223 19.8627 10.9047 19.9238 10.7785 19.9604C10.6524 19.997 10.5203 20.0084 10.3898 19.994C10.2592 19.9796 10.1328 19.9395 10.0178 19.8762C9.9027 19.8129 9.80122 19.7276 9.71914 19.6251C9.63705 19.5226 9.57596 19.4049 9.53935 19.2788C9.50274 19.1526 9.49134 19.0205 9.50578 18.89L9.94978 14.89C9.98241 14.6277 10.1162 14.3885 10.3226 14.2234C10.529 14.0583 10.7917 13.9803 11.0548 14.006C11.3182 14.0354 11.5592 14.1682 11.7248 14.3752C11.8904 14.5822 11.967 14.8465 11.9378 15.11Z" fill="#222222"/>
</g>
</svg>
