<svg width="24" height="24" viewBox="0 0 24 24" fill="none" xmlns="http://www.w3.org/2000/svg">
<g id="Group">
<path id="Vector" d="M24 14.006C23.9988 13.5866 23.9091 13.1722 23.7368 12.7898C23.5645 12.4074 23.3134 12.0657 23 11.787V9C22.9974 6.61386 22.0483 4.32622 20.3611 2.63896C18.6738 0.951708 16.3862 0.00264685 14 0L10 0C7.61389 0.00264685 5.32624 0.951708 3.63899 2.63896C1.95174 4.32622 1.00267 6.61386 1.00003 9V11.787C0.686624 12.0657 0.43556 12.4074 0.263242 12.7898C0.090925 13.1722 0.0012329 13.5866 2.77693e-05 14.006V14.177C-0.00179762 14.6013 0.0863892 15.0211 0.258766 15.4088C0.431144 15.7965 0.68379 16.1432 1.00003 16.426V20C1.00003 21.0609 1.42146 22.0783 2.1716 22.8284C2.92175 23.5786 3.93916 24 5.00003 24H19C20.0609 24 21.0783 23.5786 21.8285 22.8284C22.5786 22.0783 23 21.0609 23 20V16.226C23.3136 15.9472 23.5647 15.6053 23.737 15.2228C23.9093 14.8402 23.999 14.4256 24 14.006ZM3.00003 9C3.00215 7.14413 3.74032 5.36489 5.05262 4.05259C6.36491 2.7403 8.14416 2.00212 10 2H14C15.8559 2.00212 17.6351 2.7403 18.9474 4.05259C20.2597 5.36489 20.9979 7.14413 21 9V11.006H3.00003V9ZM21 15.006H17C14.3492 15.0076 11.7882 15.9664 9.78803 17.706C9.5703 17.8973 9.29037 18.0028 9.00053 18.0028C8.71068 18.0028 8.43075 17.8973 8.21303 17.706C6.67242 16.3657 4.78913 15.4806 2.77403 15.15C2.55148 15.1042 2.35209 14.9816 2.21064 14.8038C2.06919 14.626 1.99465 14.4042 2.00003 14.177V14.006C2.00003 13.7408 2.10538 13.4864 2.29292 13.2989C2.48046 13.1114 2.73481 13.006 3.00003 13.006H21C21.2652 13.006 21.5196 13.1114 21.7071 13.2989C21.8947 13.4864 22 13.7408 22 14.006C22 14.2712 21.8947 14.5256 21.7071 14.7131C21.5196 14.9006 21.2652 15.006 21 15.006ZM21 20C21 20.5304 20.7893 21.0391 20.4142 21.4142C20.0392 21.7893 19.5305 22 19 22H5.00003C4.46959 22 3.96089 21.7893 3.58581 21.4142C3.21074 21.0391 3.00003 20.5304 3.00003 20V17.253C4.44107 17.575 5.78056 18.2471 6.90003 19.21C7.48011 19.7213 8.22679 20.0034 9.00003 20.0034C9.77326 20.0034 10.5199 19.7213 11.1 19.21C12.7376 17.7902 14.8326 17.009 17 17.01H21V20ZM11 5C11 5.26522 10.8947 5.51957 10.7071 5.70711C10.5196 5.89464 10.2652 6 10 6C9.73481 6 9.48046 5.89464 9.29292 5.70711C9.10538 5.51957 9.00003 5.26522 9.00003 5C9.00003 4.73478 9.10538 4.48043 9.29292 4.29289C9.48046 4.10536 9.73481 4 10 4C10.2652 4 10.5196 4.10536 10.7071 4.29289C10.8947 4.48043 11 4.73478 11 5ZM8.00003 8C8.00003 8.26522 7.89467 8.51957 7.70713 8.70711C7.5196 8.89464 7.26524 9 7.00003 9C6.73481 9 6.48046 8.89464 6.29292 8.70711C6.10538 8.51957 6.00003 8.26522 6.00003 8C6.00003 7.73478 6.10538 7.48043 6.29292 7.29289C6.48046 7.10536 6.73481 7 7.00003 7C7.26524 7 7.5196 7.10536 7.70713 7.29289C7.89467 7.48043 8.00003 7.73478 8.00003 8Z" fill="white"/>
</g>
</svg>
