<svg width="18" height="19" viewBox="0 0 18 19" fill="none" xmlns="http://www.w3.org/2000/svg">
<g clip-path="url(#clip0_693_736)">
<path d="M5.25366 6.06103V4.56103C5.25366 2.48997 6.9326 0.811035 9.00368 0.811035C11.0747 0.811035 12.7537 2.48997 12.7537 4.56103V6.06103H15.0037C15.4179 6.06103 15.7537 6.39682 15.7537 6.81103V15.811C15.7537 16.2253 15.4179 16.561 15.0037 16.561H3.00366C2.58945 16.561 2.25366 16.2253 2.25366 15.811V6.81103C2.25366 6.39682 2.58945 6.06103 3.00366 6.06103H5.25366ZM5.25366 7.56103H3.75366V15.061H14.2537V7.56103H12.7537V9.06103H11.2537V7.56103H6.75366V9.06103H5.25366V7.56103ZM6.75366 6.06103H11.2537V4.56103C11.2537 3.3184 10.2463 2.31103 9.00368 2.31103C7.761 2.31103 6.75366 3.3184 6.75366 4.56103V6.06103Z" fill="white"/>
</g>
<defs>
<clipPath id="clip0_693_736">
<rect width="18" height="18" fill="white" transform="translate(0 0.0615234)"/>
</clipPath>
</defs>
</svg>
