<svg width="33" height="32" viewBox="0 0 33 32" fill="none" xmlns="http://www.w3.org/2000/svg">
<g id="e-bike-2-line">
<path id="Vector" d="M21.6667 1.3335C22.4031 1.3335 23 1.93046 23 2.66683V4.00016H29.6667V12.0002H26.9751L30.6361 22.0587C30.8711 22.6599 31 23.3143 31 23.9988C31 26.9444 28.6121 29.3322 25.6667 29.3322C23.182 29.3322 21.0943 27.6331 20.5017 25.3335H14.832C14.2399 27.6338 12.1518 29.3335 9.66667 29.3335C7.07401 29.3335 4.91344 27.4835 4.43299 25.0316C3.58128 24.5863 3 23.6944 3 22.6668V9.3335C3 8.59712 3.59696 8.00016 4.33333 8.00016H13.6667C14.4031 8.00016 15 8.59712 15 9.3335V16.0002C15 16.7366 15.5969 17.3335 16.3333 17.3335H19C19.7364 17.3335 20.3333 16.7366 20.3333 16.0002V4.00016H16.3333V1.3335H21.6667ZM9.66667 21.3335C8.19391 21.3335 7 22.5274 7 24.0002C7 25.473 8.19391 26.6668 9.66667 26.6668C11.1394 26.6668 12.3333 25.473 12.3333 24.0002C12.3333 22.5274 11.1394 21.3335 9.66667 21.3335ZM25.6667 21.3322C24.1939 21.3322 23 22.526 23 23.9988C23 25.4716 24.1939 26.6655 25.6667 26.6655C27.1395 26.6655 28.3333 25.4716 28.3333 23.9988C28.3333 23.6784 28.2768 23.3711 28.1732 23.0866L28.1513 23.0287C27.7633 22.0356 26.7972 21.3322 25.6667 21.3322ZM24.1373 12.0002H23V16.0002C23 18.2094 21.2092 20.0002 19 20.0002H16.3333C14.1241 20.0002 12.3333 18.2094 12.3333 16.0002H5.66667V20.4724C6.64392 19.3652 8.07375 18.6668 9.66667 18.6668C12.1518 18.6668 14.2399 20.3666 14.832 22.6668H20.5011C21.0927 20.3659 23.1811 18.6655 25.6667 18.6655C25.9824 18.6655 26.2917 18.693 26.5924 18.7456L24.1373 12.0002ZM12.3333 10.6668H5.66667V13.3335H12.3333V10.6668ZM27 6.66683H23V9.3335H27V6.66683Z" fill="black"/>
</g>
</svg>
