<svg width="24" height="24" viewBox="0 0 24 24" fill="none" xmlns="http://www.w3.org/2000/svg">
<g id="Group">
<path id="Vector" d="M23.3001 12.078C22.9667 11.6858 22.5374 11.3864 22.0541 11.209L22.8321 8.97002C22.9895 8.49409 23.0258 7.98644 22.9378 7.49295C22.8497 6.99947 22.6401 6.5357 22.3279 6.14355C22.0156 5.7514 21.6106 5.44323 21.1493 5.2469C20.6881 5.05056 20.1852 4.97224 19.6861 5.01902L19.9571 3.50002C20.0952 2.71591 19.9161 1.90907 19.4592 1.25701C19.0024 0.604944 18.3053 0.161065 17.5211 0.0230199C16.737 -0.115025 15.9302 0.064071 15.2781 0.52091C14.6261 0.977748 14.1822 1.67491 14.0441 2.45902L13.9831 2.76602C13.4366 2.28032 12.7308 2.01204 11.9996 2.01204C11.2685 2.01204 10.5627 2.28032 10.0161 2.76602L9.96014 2.48702C9.82514 1.70251 9.38403 1.00376 8.73384 0.544481C8.08365 0.0852041 7.27765 -0.0969753 6.49314 0.0380199C5.70863 0.173015 5.00988 0.614127 4.5506 1.26432C4.09132 1.9145 3.90914 2.72051 4.04414 3.50502L4.31114 5.01902C3.81151 4.9722 3.3081 5.05073 2.84649 5.24752C2.38487 5.44431 1.97963 5.75313 1.66746 6.14603C1.35529 6.53892 1.14605 7.00347 1.05869 7.49762C0.971324 7.99177 1.0086 8.49991 1.16714 8.97602L1.94314 11.209C1.28696 11.4528 0.737541 11.9198 0.391226 12.5282C0.0449111 13.1365 -0.0761966 13.8473 0.0491385 14.536L1.02314 19.893C1.23229 21.0453 1.83927 22.0876 2.73822 22.8381C3.63717 23.5887 4.77105 23.9999 5.94214 24H18.0581C19.2289 24 20.3626 23.589 21.2615 22.8389C22.1604 22.0887 22.7676 21.0469 22.9771 19.895L23.9511 14.539C24.0306 14.1062 24.0135 13.6611 23.9009 13.2357C23.7884 12.8103 23.5832 12.4149 23.3001 12.078ZM20.3161 7.05502C20.5668 7.14 20.7735 7.32086 20.891 7.55797C21.0085 7.79508 21.0273 8.06911 20.9431 8.32002L20.0131 11H18.6301L19.2841 7.30002C19.4159 7.16651 19.5825 7.07274 19.765 7.02942C19.9475 6.9861 20.1385 6.99497 20.3161 7.05502ZM17.1671 2.01002C17.428 2.05433 17.6607 2.20025 17.8142 2.4158C17.9678 2.63136 18.0296 2.89898 17.9861 3.16002L16.6001 11H15.0001V7.90802L16.0111 2.82702C16.0333 2.69741 16.0808 2.57345 16.1509 2.46222C16.221 2.35098 16.3123 2.25467 16.4197 2.17878C16.5271 2.1029 16.6484 2.04893 16.7766 2.01997C16.9049 1.99101 17.0376 1.98763 17.1671 2.01002ZM11.0001 5.00002C11.0001 4.7348 11.1055 4.48045 11.293 4.29291C11.4806 4.10538 11.7349 4.00002 12.0001 4.00002C12.2654 4.00002 12.5197 4.10538 12.7072 4.29291C12.8948 4.48045 13.0001 4.7348 13.0001 5.00002V11H11.0001V5.00002ZM6.83314 2.01002C6.96474 1.98837 7.09932 1.99303 7.22911 2.02373C7.3589 2.05442 7.48131 2.11054 7.58928 2.18884C7.69724 2.26714 7.78861 2.36606 7.8581 2.47989C7.9276 2.59373 7.97383 2.72021 7.99414 2.85202L9.00014 7.90802V11H7.40014L6.01514 3.16502C5.9929 3.03546 5.99643 2.90279 6.02552 2.77459C6.05461 2.6464 6.10869 2.52519 6.18466 2.41792C6.26064 2.31064 6.35702 2.2194 6.46829 2.14941C6.57956 2.07942 6.70354 2.03205 6.83314 2.01002ZM3.68414 7.05502C3.86182 6.99497 4.05281 6.9861 4.2353 7.02942C4.41778 7.07274 4.58441 7.16651 4.71614 7.30002L5.37014 11H3.98714L3.05914 8.32602C3.01651 8.20154 2.99888 8.06987 3.00723 7.93856C3.01559 7.80725 3.04978 7.67887 3.10784 7.5608C3.1659 7.44273 3.24669 7.33727 3.34559 7.25048C3.44448 7.16369 3.55953 7.09727 3.68414 7.05502ZM21.9841 14.179L21.0101 19.534C20.885 20.2258 20.5209 20.8517 19.9814 21.3024C19.4418 21.7531 18.7612 22 18.0581 22H5.94214C5.23987 21.9999 4.55989 21.7535 4.02065 21.3036C3.4814 20.8537 3.11708 20.2289 2.99114 19.538L2.01714 14.182C1.99044 14.0378 1.99581 13.8894 2.03286 13.7474C2.06992 13.6055 2.13776 13.4734 2.23158 13.3606C2.32539 13.2478 2.44287 13.157 2.57569 13.0947C2.70852 13.0324 2.85342 13.0001 3.00014 13H21.0001C21.1465 13.0001 21.2911 13.0324 21.4237 13.0946C21.5563 13.1567 21.6736 13.2472 21.7674 13.3596C21.8611 13.4721 21.929 13.6038 21.9663 13.7453C22.0036 13.8869 22.0103 14.035 21.9841 14.179Z" fill="#222222"/>
</g>
</svg>
