<svg width="33" height="32" viewBox="0 0 33 32" fill="none" xmlns="http://www.w3.org/2000/svg">
<path d="M10.1753 27.6493C6.09331 25.3698 3.33301 21.0072 3.33301 15.9998C3.33301 8.63604 9.30254 2.6665 16.6663 2.6665C24.0301 2.6665 29.9997 8.63604 29.9997 15.9998C29.9997 21.0072 27.2394 25.3698 23.1574 27.6493L21.9629 25.2608C25.1714 23.4217 27.333 19.9632 27.333 15.9998C27.333 10.1088 22.5574 5.33317 16.6663 5.33317C10.7753 5.33317 5.99967 10.1088 5.99967 15.9998C5.99967 19.9632 8.16126 23.4217 11.3698 25.2608L10.1753 27.6493ZM12.5654 22.8702C10.23 21.4732 8.66634 18.919 8.66634 15.9998C8.66634 11.5816 12.2481 7.99984 16.6663 7.99984C21.0846 7.99984 24.6663 11.5816 24.6663 15.9998C24.6663 18.919 23.1027 21.4732 20.7673 22.8702L19.5693 20.4746C21.0322 19.5237 21.9997 17.8748 21.9997 15.9998C21.9997 13.0543 19.6118 10.6665 16.6663 10.6665C13.7208 10.6665 11.333 13.0543 11.333 15.9998C11.333 17.8748 12.3005 19.5237 13.7634 20.4746L12.5654 22.8702ZM16.6663 21.3332L20.6663 29.3332H12.6663L16.6663 21.3332Z" fill="black"/>
</svg>
