<svg width="32" height="32" viewBox="0 0 32 32" fill="none" xmlns="http://www.w3.org/2000/svg">
<g id="medal-line">
<path id="Vector" d="M16.0002 9.33353C21.8912 9.33353 26.6668 14.1091 26.6668 20.0002C26.6668 25.8912 21.8912 30.6668 16.0002 30.6668C10.1091 30.6668 5.3335 25.8912 5.3335 20.0002C5.3335 14.1091 10.1091 9.33353 16.0002 9.33353ZM16.0002 12.0002C11.5819 12.0002 8.00016 15.5819 8.00016 20.0002C8.00016 24.4184 11.5819 28.0002 16.0002 28.0002C20.4184 28.0002 24.0002 24.4184 24.0002 20.0002C24.0002 15.5819 20.4184 12.0002 16.0002 12.0002ZM16.0002 14.0002L17.7635 17.5731L21.7066 18.146L18.8534 20.9272L19.5268 24.8543L16.0002 23.0002L12.4735 24.8543L13.147 20.9272L10.2938 18.146L14.2368 17.5731L16.0002 14.0002ZM24.0002 2.66686V6.66686L22.1823 8.18361C20.7075 7.41047 19.0702 6.90533 17.335 6.73285L17.3335 2.66553L24.0002 2.66686ZM14.6668 2.66553L14.6664 6.73274C12.9314 6.90505 11.2941 7.41001 9.81938 8.18291L8.00016 6.66686V2.66686L14.6668 2.66553Z" fill="black"/>
</g>
</svg>
