<svg width="32" height="32" viewBox="0 0 32 32" fill="none" xmlns="http://www.w3.org/2000/svg">
<path d="M28 21.8933V26.6081C28 27.3081 27.4588 27.8889 26.7607 27.9383C26.1775 27.9795 25.7017 28 25.3333 28C13.5512 28 4 18.4488 4 6.66667C4 6.29828 4.0206 5.82249 4.0618 5.23933C4.11116 4.54117 4.69192 4 5.39181 4H10.1068C10.449 4 10.7357 4.25923 10.77 4.59973C10.8009 4.90543 10.8296 5.15085 10.8561 5.33603C11.1258 7.21963 11.6767 9.01248 12.4649 10.6707C12.5915 10.9369 12.5089 11.2555 12.2691 11.4267L9.3914 13.4824C11.1434 17.5748 14.4252 20.8567 18.5176 22.6087L20.5695 19.7359C20.7429 19.4932 21.0653 19.4097 21.3347 19.5376C22.9928 20.3252 24.7855 20.8755 26.6688 21.1445C26.8528 21.1709 27.0967 21.1993 27.4003 21.23C27.7408 21.2644 28 21.5511 28 21.8933Z" fill="white"/>
</svg>
