<svg width="15" height="13" viewBox="0 0 15 13" fill="none" xmlns="http://www.w3.org/2000/svg">
<path d="M15 1.84881C14.4363 2.08916 13.8401 2.24804 13.23 2.32052C13.8736 1.94265 14.356 1.3482 14.5875 0.64743C13.9827 1.00126 13.3206 1.25055 12.63 1.38447C12.1684 0.89255 11.5537 0.565099 10.8824 0.453477C10.211 0.341856 9.52091 0.452377 8.92034 0.767708C8.31978 1.08304 7.8427 1.58534 7.56393 2.19584C7.28516 2.80634 7.22047 3.4905 7.38 4.14102C6.15707 4.08024 4.96083 3.76731 3.86899 3.22256C2.77715 2.67782 1.81413 1.91345 1.0425 0.9791C0.771853 1.44356 0.629639 1.96956 0.63 2.50478C0.62904 3.00183 0.753163 3.49141 0.991316 3.92991C1.22947 4.36841 1.57426 4.74224 1.995 5.01811C1.50598 5.00503 1.02741 4.87608 0.6 4.64222V4.67907C0.603665 5.37549 0.851996 6.0493 1.30299 6.58652C1.75398 7.12373 2.37994 7.49137 3.075 7.62725C2.80744 7.70727 2.52966 7.74946 2.25 7.75255C2.05642 7.75032 1.86332 7.73307 1.6725 7.70095C1.87043 8.30003 2.25347 8.82358 2.76831 9.19875C3.28315 9.57391 3.90418 9.78204 4.545 9.79416C3.4629 10.6309 2.12691 11.0876 0.75 11.0914C0.499301 11.0922 0.248802 11.0774 0 11.0471C1.40582 11.9392 3.04411 12.4127 4.7175 12.4107C5.87227 12.4225 7.01785 12.208 8.08734 11.7798C9.15682 11.3516 10.1288 10.7183 10.9464 9.91688C11.764 9.11542 12.411 8.16189 12.8494 7.11198C13.2879 6.06207 13.509 4.93683 13.5 3.80198C13.5 3.67669 13.5 3.54402 13.5 3.41135C14.0885 2.98004 14.5961 2.45129 15 1.84881Z" fill="black"/>
</svg>
